<mxfile host="app.diagrams.net" modified="2023-06-21T18:20:35.984Z" agent="Mozilla/5.0 (Windows NT 10.0; Win64; x64) AppleWebKit/537.36 (KHTML, like Gecko) Chrome/114.0.0.0 Safari/537.36" etag="ejbcyICG1hzyjfdU4zQQ" version="21.3.8" type="device">
  <diagram name="Страница 1" id="-ak_7tm_3kJUXnMeUjWw">
    <mxGraphModel dx="1434" dy="764" grid="1" gridSize="10" guides="1" tooltips="1" connect="1" arrows="1" fold="1" page="1" pageScale="1" pageWidth="827" pageHeight="1169" math="0" shadow="0">
      <root>
        <mxCell id="0" />
        <mxCell id="1" parent="0" />
        <mxCell id="wl-hOouUavtUKwFOnq6h-3" value="" style="edgeStyle=orthogonalEdgeStyle;rounded=0;orthogonalLoop=1;jettySize=auto;html=1;" edge="1" parent="1" source="wl-hOouUavtUKwFOnq6h-1" target="wl-hOouUavtUKwFOnq6h-2">
          <mxGeometry relative="1" as="geometry" />
        </mxCell>
        <mxCell id="wl-hOouUavtUKwFOnq6h-1" value="Начало" style="ellipse;whiteSpace=wrap;html=1;" vertex="1" parent="1">
          <mxGeometry x="340" y="20" width="120" height="40" as="geometry" />
        </mxCell>
        <mxCell id="wl-hOouUavtUKwFOnq6h-5" value="" style="edgeStyle=orthogonalEdgeStyle;rounded=0;orthogonalLoop=1;jettySize=auto;html=1;" edge="1" parent="1" source="wl-hOouUavtUKwFOnq6h-2" target="wl-hOouUavtUKwFOnq6h-4">
          <mxGeometry relative="1" as="geometry" />
        </mxCell>
        <mxCell id="wl-hOouUavtUKwFOnq6h-2" value="Создание сети (Заполнение слоёв, генерация весов и сдвигов)" style="rounded=0;whiteSpace=wrap;html=1;" vertex="1" parent="1">
          <mxGeometry x="310" y="100" width="180" height="50" as="geometry" />
        </mxCell>
        <mxCell id="wl-hOouUavtUKwFOnq6h-7" value="" style="edgeStyle=orthogonalEdgeStyle;rounded=0;orthogonalLoop=1;jettySize=auto;html=1;" edge="1" parent="1" source="wl-hOouUavtUKwFOnq6h-4" target="wl-hOouUavtUKwFOnq6h-6">
          <mxGeometry relative="1" as="geometry" />
        </mxCell>
        <mxCell id="wl-hOouUavtUKwFOnq6h-4" value="Загрузка обучающей и тестовой выборок" style="rounded=0;whiteSpace=wrap;html=1;" vertex="1" parent="1">
          <mxGeometry x="340" y="180" width="120" height="60" as="geometry" />
        </mxCell>
        <mxCell id="wl-hOouUavtUKwFOnq6h-9" value="" style="edgeStyle=orthogonalEdgeStyle;rounded=0;orthogonalLoop=1;jettySize=auto;html=1;" edge="1" parent="1" source="wl-hOouUavtUKwFOnq6h-6" target="wl-hOouUavtUKwFOnq6h-8">
          <mxGeometry relative="1" as="geometry" />
        </mxCell>
        <mxCell id="wl-hOouUavtUKwFOnq6h-6" value="Подаём входные данные обучающей выборки в сеть" style="rounded=0;whiteSpace=wrap;html=1;" vertex="1" parent="1">
          <mxGeometry x="340" y="270" width="120" height="60" as="geometry" />
        </mxCell>
        <mxCell id="wl-hOouUavtUKwFOnq6h-11" value="" style="edgeStyle=orthogonalEdgeStyle;rounded=0;orthogonalLoop=1;jettySize=auto;html=1;" edge="1" parent="1" source="wl-hOouUavtUKwFOnq6h-8" target="wl-hOouUavtUKwFOnq6h-10">
          <mxGeometry relative="1" as="geometry" />
        </mxCell>
        <mxCell id="wl-hOouUavtUKwFOnq6h-8" value="Вычисляем ошибку" style="rounded=0;whiteSpace=wrap;html=1;" vertex="1" parent="1">
          <mxGeometry x="340" y="360" width="120" height="40" as="geometry" />
        </mxCell>
        <mxCell id="wl-hOouUavtUKwFOnq6h-13" value="" style="edgeStyle=orthogonalEdgeStyle;rounded=0;orthogonalLoop=1;jettySize=auto;html=1;" edge="1" parent="1" source="wl-hOouUavtUKwFOnq6h-10" target="wl-hOouUavtUKwFOnq6h-12">
          <mxGeometry relative="1" as="geometry" />
        </mxCell>
        <mxCell id="wl-hOouUavtUKwFOnq6h-10" value="Вычисляем градиент от ошибки" style="rounded=0;whiteSpace=wrap;html=1;" vertex="1" parent="1">
          <mxGeometry x="340" y="440" width="120" height="40" as="geometry" />
        </mxCell>
        <mxCell id="wl-hOouUavtUKwFOnq6h-15" value="" style="edgeStyle=orthogonalEdgeStyle;rounded=0;orthogonalLoop=1;jettySize=auto;html=1;" edge="1" parent="1" source="wl-hOouUavtUKwFOnq6h-12" target="wl-hOouUavtUKwFOnq6h-14">
          <mxGeometry relative="1" as="geometry" />
        </mxCell>
        <mxCell id="wl-hOouUavtUKwFOnq6h-12" value="Подаём полученный градиент следующим слоям в обратном направлении" style="rounded=0;whiteSpace=wrap;html=1;" vertex="1" parent="1">
          <mxGeometry x="320" y="520" width="160" height="70" as="geometry" />
        </mxCell>
        <mxCell id="wl-hOouUavtUKwFOnq6h-17" value="" style="edgeStyle=orthogonalEdgeStyle;rounded=0;orthogonalLoop=1;jettySize=auto;html=1;" edge="1" parent="1" source="wl-hOouUavtUKwFOnq6h-14" target="wl-hOouUavtUKwFOnq6h-16">
          <mxGeometry relative="1" as="geometry" />
        </mxCell>
        <mxCell id="wl-hOouUavtUKwFOnq6h-14" value="Корректируем веса слоёв" style="rounded=0;whiteSpace=wrap;html=1;" vertex="1" parent="1">
          <mxGeometry x="320" y="620" width="160" height="40" as="geometry" />
        </mxCell>
        <mxCell id="wl-hOouUavtUKwFOnq6h-19" style="edgeStyle=orthogonalEdgeStyle;rounded=0;orthogonalLoop=1;jettySize=auto;html=1;entryX=1;entryY=0.5;entryDx=0;entryDy=0;" edge="1" parent="1" source="wl-hOouUavtUKwFOnq6h-16" target="wl-hOouUavtUKwFOnq6h-6">
          <mxGeometry relative="1" as="geometry">
            <mxPoint x="710" y="320" as="targetPoint" />
            <Array as="points">
              <mxPoint x="640" y="740" />
              <mxPoint x="640" y="300" />
            </Array>
          </mxGeometry>
        </mxCell>
        <mxCell id="wl-hOouUavtUKwFOnq6h-20" value="Нет" style="edgeLabel;html=1;align=center;verticalAlign=middle;resizable=0;points=[];" vertex="1" connectable="0" parent="wl-hOouUavtUKwFOnq6h-19">
          <mxGeometry x="-0.8649" relative="1" as="geometry">
            <mxPoint as="offset" />
          </mxGeometry>
        </mxCell>
        <mxCell id="wl-hOouUavtUKwFOnq6h-22" value="Да" style="edgeStyle=orthogonalEdgeStyle;rounded=0;orthogonalLoop=1;jettySize=auto;html=1;" edge="1" parent="1" source="wl-hOouUavtUKwFOnq6h-16" target="wl-hOouUavtUKwFOnq6h-21">
          <mxGeometry relative="1" as="geometry" />
        </mxCell>
        <mxCell id="wl-hOouUavtUKwFOnq6h-16" value="Достигли максимального количества эпох?" style="rhombus;whiteSpace=wrap;html=1;" vertex="1" parent="1">
          <mxGeometry x="280" y="700" width="240" height="80" as="geometry" />
        </mxCell>
        <mxCell id="wl-hOouUavtUKwFOnq6h-21" value="Конец" style="ellipse;whiteSpace=wrap;html=1;" vertex="1" parent="1">
          <mxGeometry x="340" y="840" width="120" height="50" as="geometry" />
        </mxCell>
      </root>
    </mxGraphModel>
  </diagram>
</mxfile>
